<svg id="visual" viewBox="0 0 900 350" width="900" height="350" xmlns="http://www.w3.org/2000/svg" xmlns:xlink="http://www.w3.org/1999/xlink" version="1.1"><rect x="0" y="0" width="900" height="350" fill="#23262d"></rect><defs><linearGradient id="grad1_0" x1="61.1%" y1="0%" x2="100%" y2="100%"><stop offset="-1.4285714285714342%" stop-color="#23262d" stop-opacity="1"></stop><stop offset="101.42857142857143%" stop-color="#23262d" stop-opacity="1"></stop></linearGradient></defs><defs><linearGradient id="grad2_0" x1="0%" y1="0%" x2="38.9%" y2="100%"><stop offset="-1.4285714285714342%" stop-color="#23262d" stop-opacity="1"></stop><stop offset="101.42857142857143%" stop-color="#23262d" stop-opacity="1"></stop></linearGradient></defs><g transform="translate(900, 0)"><path d="M0 105C-10.9 104.2 -21.8 103.3 -32.4 99.9C-43.1 96.4 -53.4 90.4 -59.4 81.7C-65.3 73 -67 61.7 -73.6 53.5C-80.3 45.3 -91.9 40.2 -98 31.8C-104 23.4 -104.5 11.7 -105 0L0 0Z" fill="#03DAC6"></path></g><g transform="translate(0, 350)"><path d="M0 -105C10.8 -103.9 21.6 -102.8 32.4 -99.9C43.3 -96.9 54.1 -92.2 61.1 -84.1C68.2 -76.1 71.5 -64.6 76 -55.3C80.6 -45.9 86.3 -38.5 91.3 -29.7C96.3 -20.8 100.7 -10.4 105 0L0 0Z" fill="#03DAC6"></path></g></svg>