<svg id="visual" viewBox="0 0 900 900" width="900" height="900" xmlns="http://www.w3.org/2000/svg" xmlns:xlink="http://www.w3.org/1999/xlink" version="1.1"><rect x="0" y="0" width="900" height="900" fill="#23262d"></rect><defs><linearGradient id="grad1_0" x1="0%" y1="0%" x2="100%" y2="100%"><stop offset="30%" stop-color="#23262d" stop-opacity="1"></stop><stop offset="70%" stop-color="#23262d" stop-opacity="1"></stop></linearGradient></defs><defs><linearGradient id="grad2_0" x1="0%" y1="0%" x2="100%" y2="100%"><stop offset="30%" stop-color="#23262d" stop-opacity="1"></stop><stop offset="70%" stop-color="#23262d" stop-opacity="1"></stop></linearGradient></defs><g transform="translate(900, 0)"><path d="M0 222.7C-24.6 206.2 -49.2 189.6 -73.9 178.3C-98.6 167 -123.4 161.1 -147.1 147.1C-170.8 133.1 -193.4 111.1 -205.8 85.2C-218.2 59.4 -220.5 29.7 -222.7 0L0 0Z" fill="#03DAC6"></path></g><g transform="translate(0, 900)"><path d="M0 -222.7C31.3 -221.7 62.7 -220.6 85.2 -205.8C107.8 -190.9 121.6 -162.3 140.7 -140.7C159.8 -119.1 184.1 -104.6 198.6 -82.3C213.2 -60 218 -30 222.7 0L0 0Z" fill="#03DAC6"></path></g></svg>