<svg id="visual" viewBox="0 0 900 600" width="900" height="600" xmlns="http://www.w3.org/2000/svg" xmlns:xlink="http://www.w3.org/1999/xlink" version="1.1"><rect x="0" y="0" width="900" height="600" fill="#001220"></rect><defs><linearGradient id="grad1_0" x1="33.3%" y1="0%" x2="100%" y2="100%"><stop offset="20%" stop-color="#001220" stop-opacity="1"></stop><stop offset="80%" stop-color="#001220" stop-opacity="1"></stop></linearGradient></defs><defs><linearGradient id="grad2_0" x1="0%" y1="0%" x2="66.7%" y2="100%"><stop offset="20%" stop-color="#001220" stop-opacity="1"></stop><stop offset="80%" stop-color="#001220" stop-opacity="1"></stop></linearGradient></defs><g transform="translate(900, 0)"><path d="M0 297.5C-40.7 291.7 -81.4 285.9 -109.8 265.2C-138.2 244.4 -154.3 208.6 -183.1 183.1C-212 157.7 -253.6 142.6 -274.8 113.8C-296 85 -296.7 42.5 -297.5 0L0 0Z" fill="#03DAC6"></path></g><g transform="translate(0, 600)"><path d="M0 -297.5C37.8 -292.7 75.6 -287.9 113.8 -274.8C152.1 -261.7 190.8 -240.2 207.9 -207.9C225 -175.6 220.6 -132.5 231.9 -96.1C243.2 -59.6 270.3 -29.8 297.5 0L0 0Z" fill="#03DAC6"></path></g></svg>