<svg id="visual" viewBox="0 0 900 900" width="900" height="900" xmlns="http://www.w3.org/2000/svg" xmlns:xlink="http://www.w3.org/1999/xlink" version="1.1"><rect x="0" y="0" width="900" height="900" fill="#23262d"></rect><defs><linearGradient id="grad1_0" x1="0%" y1="0%" x2="100%" y2="100%"><stop offset="30%" stop-color="#23262d" stop-opacity="1"></stop><stop offset="70%" stop-color="#23262d" stop-opacity="1"></stop></linearGradient></defs><defs><linearGradient id="grad2_0" x1="0%" y1="0%" x2="100%" y2="100%"><stop offset="30%" stop-color="#23262d" stop-opacity="1"></stop><stop offset="70%" stop-color="#23262d" stop-opacity="1"></stop></linearGradient></defs><g transform="translate(900, 0)"><path d="M0 318.2C-45.1 313.8 -90.2 309.5 -117.9 284.6C-145.6 259.6 -155.9 214.1 -186.7 186.7C-217.4 159.2 -268.7 149.9 -294 121.8C-319.3 93.7 -318.8 46.8 -318.2 0L0 0Z" fill="#03DAC6"></path></g><g transform="translate(0, 900)"><path d="M0 -318.2C45.7 -317.6 91.3 -317 121.8 -294C152.2 -270.9 167.5 -225.4 194.5 -194.5C221.4 -163.5 260.1 -147.1 282.7 -117.1C305.3 -87.1 311.7 -43.6 318.2 0L0 0Z" fill="#03DAC6"></path></g></svg>