<svg id="visual" viewBox="0 0 900 600" width="900" height="600" xmlns="http://www.w3.org/2000/svg" xmlns:xlink="http://www.w3.org/1999/xlink" version="1.1"><rect x="0" y="0" width="900" height="600" fill="#001220"></rect><defs><linearGradient id="grad1_0" x1="33.3%" y1="0%" x2="100%" y2="100%"><stop offset="20%" stop-color="#001220" stop-opacity="1"></stop><stop offset="80%" stop-color="#001220" stop-opacity="1"></stop></linearGradient></defs><defs><linearGradient id="grad2_0" x1="0%" y1="0%" x2="66.7%" y2="100%"><stop offset="20%" stop-color="#001220" stop-opacity="1"></stop><stop offset="80%" stop-color="#001220" stop-opacity="1"></stop></linearGradient></defs><g transform="translate(900, 0)"><path d="M0 459.7C-58.9 436.5 -117.8 413.2 -156.1 376.9C-194.5 340.7 -212.2 291.3 -260.2 260.2C-308.2 229.1 -386.4 216.3 -424.7 175.9C-463 135.6 -461.4 67.8 -459.7 0L0 0Z" fill="#03DAC6"></path></g><g transform="translate(0, 600)"><path d="M0 -459.7C62 -452.6 123.9 -445.5 173.4 -418.5C222.8 -391.6 259.7 -344.8 303.3 -303.3C347 -261.9 397.5 -225.6 424.7 -175.9C451.9 -126.2 455.8 -63.1 459.7 0L0 0Z" fill="#03DAC6"></path></g></svg>