<svg id="visual" viewBox="0 0 960 540" width="960" height="540" xmlns="http://www.w3.org/2000/svg" xmlns:xlink="http://www.w3.org/1999/xlink" version="1.1"><rect x="0" y="0" width="960" height="540" fill="#031726"></rect><defs><linearGradient id="grad1_0" x1="43.8%" y1="0%" x2="100%" y2="100%"><stop offset="14.444444444444446%" stop-color="#fa693c" stop-opacity="1"></stop><stop offset="85.55555555555554%" stop-color="#fa693c" stop-opacity="1"></stop></linearGradient></defs><defs><linearGradient id="grad1_1" x1="43.8%" y1="0%" x2="100%" y2="100%"><stop offset="14.444444444444446%" stop-color="#fa693c" stop-opacity="1"></stop><stop offset="85.55555555555554%" stop-color="#cb3e66" stop-opacity="1"></stop></linearGradient></defs><defs><linearGradient id="grad1_2" x1="43.8%" y1="0%" x2="100%" y2="100%"><stop offset="14.444444444444446%" stop-color="#7e3771" stop-opacity="1"></stop><stop offset="85.55555555555554%" stop-color="#cb3e66" stop-opacity="1"></stop></linearGradient></defs><defs><linearGradient id="grad1_3" x1="43.8%" y1="0%" x2="100%" y2="100%"><stop offset="14.444444444444446%" stop-color="#7e3771" stop-opacity="1"></stop><stop offset="85.55555555555554%" stop-color="#302d57" stop-opacity="1"></stop></linearGradient></defs><defs><linearGradient id="grad1_4" x1="43.8%" y1="0%" x2="100%" y2="100%"><stop offset="14.444444444444446%" stop-color="#031726" stop-opacity="1"></stop><stop offset="85.55555555555554%" stop-color="#302d57" stop-opacity="1"></stop></linearGradient></defs><defs><linearGradient id="grad2_0" x1="0%" y1="0%" x2="56.3%" y2="100%"><stop offset="14.444444444444446%" stop-color="#fa693c" stop-opacity="1"></stop><stop offset="85.55555555555554%" stop-color="#fa693c" stop-opacity="1"></stop></linearGradient></defs><defs><linearGradient id="grad2_1" x1="0%" y1="0%" x2="56.3%" y2="100%"><stop offset="14.444444444444446%" stop-color="#cb3e66" stop-opacity="1"></stop><stop offset="85.55555555555554%" stop-color="#fa693c" stop-opacity="1"></stop></linearGradient></defs><defs><linearGradient id="grad2_2" x1="0%" y1="0%" x2="56.3%" y2="100%"><stop offset="14.444444444444446%" stop-color="#cb3e66" stop-opacity="1"></stop><stop offset="85.55555555555554%" stop-color="#7e3771" stop-opacity="1"></stop></linearGradient></defs><defs><linearGradient id="grad2_3" x1="0%" y1="0%" x2="56.3%" y2="100%"><stop offset="14.444444444444446%" stop-color="#302d57" stop-opacity="1"></stop><stop offset="85.55555555555554%" stop-color="#7e3771" stop-opacity="1"></stop></linearGradient></defs><defs><linearGradient id="grad2_4" x1="0%" y1="0%" x2="56.3%" y2="100%"><stop offset="14.444444444444446%" stop-color="#302d57" stop-opacity="1"></stop><stop offset="85.55555555555554%" stop-color="#031726" stop-opacity="1"></stop></linearGradient></defs><g transform="translate(960, 0)"><path d="M0 324C-36.3 319.2 -72.5 314.5 -94.9 292C-117.2 269.5 -125.6 229.3 -155.2 213.6C-184.7 197.9 -235.5 206.8 -262.1 190.4C-288.8 174.1 -291.4 132.7 -297.7 96.7C-304 60.8 -314 30.4 -324 0L0 0Z" fill="#12233f"></path><path d="M0 259.2C-29 255.4 -58 251.6 -75.9 233.6C-93.8 215.6 -100.5 183.4 -124.1 170.9C-147.8 158.3 -188.4 165.4 -209.7 152.4C-231 139.3 -233.1 106.1 -238.1 77.4C-243.2 48.6 -251.2 24.3 -259.2 0L0 0Z" fill="#553468"></path><path d="M0 194.4C-21.8 191.5 -43.5 188.7 -56.9 175.2C-70.3 161.7 -75.4 137.6 -93.1 128.1C-110.8 118.7 -141.3 124.1 -157.3 114.3C-173.3 104.5 -174.8 79.6 -178.6 58C-182.4 36.5 -188.4 18.2 -194.4 0L0 0Z" fill="#a73870"></path><path d="M0 129.6C-14.5 127.7 -29 125.8 -37.9 116.8C-46.9 107.8 -50.2 91.7 -62.1 85.4C-73.9 79.2 -94.2 82.7 -104.8 76.2C-115.5 69.7 -116.6 53.1 -119.1 38.7C-121.6 24.3 -125.6 12.2 -129.6 0L0 0Z" fill="#e84e55"></path><path d="M0 64.8C-7.3 63.8 -14.5 62.9 -19 58.4C-23.4 53.9 -25.1 45.9 -31 42.7C-36.9 39.6 -47.1 41.4 -52.4 38.1C-57.8 34.8 -58.3 26.5 -59.5 19.3C-60.8 12.2 -62.8 6.1 -64.8 0L0 0Z" fill="#fa693c"></path></g><g transform="translate(0, 540)"><path d="M0 -324C24.1 -284.5 48.1 -245 75.4 -232.1C102.7 -219.1 133.1 -232.7 168.7 -232.2C204.2 -231.7 244.9 -217.2 262.1 -190.4C279.4 -163.7 273.2 -124.6 279.6 -90.9C286 -57.1 305 -28.5 324 0L0 0Z" fill="#12233f"></path><path d="M0 -259.2C19.3 -227.6 38.5 -196 60.3 -185.6C82.1 -175.3 106.5 -186.1 135 -185.8C163.4 -185.4 195.9 -173.8 209.7 -152.4C223.5 -130.9 218.6 -99.7 223.7 -72.7C228.8 -45.7 244 -22.8 259.2 0L0 0Z" fill="#553468"></path><path d="M0 -194.4C14.4 -170.7 28.9 -147 45.2 -139.2C61.6 -131.5 79.9 -139.6 101.2 -139.3C122.5 -139 146.9 -130.3 157.3 -114.3C167.6 -98.2 163.9 -74.8 167.8 -54.5C171.6 -34.2 183 -17.1 194.4 0L0 0Z" fill="#a73870"></path><path d="M0 -129.6C9.6 -113.8 19.3 -98 30.2 -92.8C41.1 -87.6 53.3 -93.1 67.5 -92.9C81.7 -92.7 98 -86.9 104.8 -76.2C111.7 -65.5 109.3 -49.9 111.8 -36.3C114.4 -22.8 122 -11.4 129.6 0L0 0Z" fill="#e84e55"></path><path d="M0 -64.8C4.8 -56.9 9.6 -49 15.1 -46.4C20.5 -43.8 26.6 -46.5 33.7 -46.4C40.8 -46.3 49 -43.4 52.4 -38.1C55.9 -32.7 54.6 -24.9 55.9 -18.2C57.2 -11.4 61 -5.7 64.8 0L0 0Z" fill="#fa693c"></path></g></svg>