<svg id="visual" viewBox="0 0 1280 540" width="1280" height="540" xmlns="http://www.w3.org/2000/svg" xmlns:xlink="http://www.w3.org/1999/xlink" version="1.1"><rect x="0" y="0" width="1280" height="540" fill="#252935"></rect><path d="M0 321L19.3 312.7C38.7 304.3 77.3 287.7 116.2 284C155 280.3 194 289.7 232.8 293.7C271.7 297.7 310.3 296.3 349 301.3C387.7 306.3 426.3 317.7 465.2 321.3C504 325 543 321 581.8 311.5C620.7 302 659.3 287 698.2 285.8C737 284.7 776 297.3 814.8 305.2C853.7 313 892.3 316 931 310.3C969.7 304.7 1008.3 290.3 1047.2 287.5C1086 284.7 1125 293.3 1163.8 299.5C1202.7 305.7 1241.3 309.3 1260.7 311.2L1280 313L1280 0L1260.7 0C1241.3 0 1202.7 0 1163.8 0C1125 0 1086 0 1047.2 0C1008.3 0 969.7 0 931 0C892.3 0 853.7 0 814.8 0C776 0 737 0 698.2 0C659.3 0 620.7 0 581.8 0C543 0 504 0 465.2 0C426.3 0 387.7 0 349 0C310.3 0 271.7 0 232.8 0C194 0 155 0 116.2 0C77.3 0 38.7 0 19.3 0L0 0Z" fill="#001122"></path><path d="M0 225L19.3 231.2C38.7 237.3 77.3 249.7 116.2 254.7C155 259.7 194 257.3 232.8 255.8C271.7 254.3 310.3 253.7 349 248.3C387.7 243 426.3 233 465.2 226.8C504 220.7 543 218.3 581.8 218C620.7 217.7 659.3 219.3 698.2 224.5C737 229.7 776 238.3 814.8 246.5C853.7 254.7 892.3 262.3 931 263.7C969.7 265 1008.3 260 1047.2 250.5C1086 241 1125 227 1163.8 220C1202.7 213 1241.3 213 1260.7 213L1280 213L1280 0L1260.7 0C1241.3 0 1202.7 0 1163.8 0C1125 0 1086 0 1047.2 0C1008.3 0 969.7 0 931 0C892.3 0 853.7 0 814.8 0C776 0 737 0 698.2 0C659.3 0 620.7 0 581.8 0C543 0 504 0 465.2 0C426.3 0 387.7 0 349 0C310.3 0 271.7 0 232.8 0C194 0 155 0 116.2 0C77.3 0 38.7 0 19.3 0L0 0Z" fill="#1c2247"></path><path d="M0 193L19.3 189C38.7 185 77.3 177 116.2 177.8C155 178.7 194 188.3 232.8 192.3C271.7 196.3 310.3 194.7 349 189.2C387.7 183.7 426.3 174.3 465.2 173.3C504 172.3 543 179.7 581.8 182C620.7 184.3 659.3 181.7 698.2 176.5C737 171.3 776 163.7 814.8 159.7C853.7 155.7 892.3 155.3 931 160.2C969.7 165 1008.3 175 1047.2 178.7C1086 182.3 1125 179.7 1163.8 176.7C1202.7 173.7 1241.3 170.3 1260.7 168.7L1280 167L1280 0L1260.7 0C1241.3 0 1202.7 0 1163.8 0C1125 0 1086 0 1047.2 0C1008.3 0 969.7 0 931 0C892.3 0 853.7 0 814.8 0C776 0 737 0 698.2 0C659.3 0 620.7 0 581.8 0C543 0 504 0 465.2 0C426.3 0 387.7 0 349 0C310.3 0 271.7 0 232.8 0C194 0 155 0 116.2 0C77.3 0 38.7 0 19.3 0L0 0Z" fill="#4f2b64"></path><path d="M0 128L19.3 123.5C38.7 119 77.3 110 116.2 111.7C155 113.3 194 125.7 232.8 133.2C271.7 140.7 310.3 143.3 349 141.5C387.7 139.7 426.3 133.3 465.2 132.7C504 132 543 137 581.8 133.7C620.7 130.3 659.3 118.7 698.2 114.5C737 110.3 776 113.7 814.8 114.8C853.7 116 892.3 115 931 114.3C969.7 113.7 1008.3 113.3 1047.2 110.5C1086 107.7 1125 102.3 1163.8 102.3C1202.7 102.3 1241.3 107.7 1260.7 110.3L1280 113L1280 0L1260.7 0C1241.3 0 1202.7 0 1163.8 0C1125 0 1086 0 1047.2 0C1008.3 0 969.7 0 931 0C892.3 0 853.7 0 814.8 0C776 0 737 0 698.2 0C659.3 0 620.7 0 581.8 0C543 0 504 0 465.2 0C426.3 0 387.7 0 349 0C310.3 0 271.7 0 232.8 0C194 0 155 0 116.2 0C77.3 0 38.7 0 19.3 0L0 0Z" fill="#8b2970"></path><path d="M0 81L19.3 74.2C38.7 67.3 77.3 53.7 116.2 49C155 44.3 194 48.7 232.8 52C271.7 55.3 310.3 57.7 349 61.3C387.7 65 426.3 70 465.2 68C504 66 543 57 581.8 51.7C620.7 46.3 659.3 44.7 698.2 49.7C737 54.7 776 66.3 814.8 69.8C853.7 73.3 892.3 68.7 931 62.3C969.7 56 1008.3 48 1047.2 49C1086 50 1125 60 1163.8 60.2C1202.7 60.3 1241.3 50.7 1260.7 45.8L1280 41L1280 0L1260.7 0C1241.3 0 1202.7 0 1163.8 0C1125 0 1086 0 1047.2 0C1008.3 0 969.7 0 931 0C892.3 0 853.7 0 814.8 0C776 0 737 0 698.2 0C659.3 0 620.7 0 581.8 0C543 0 504 0 465.2 0C426.3 0 387.7 0 349 0C310.3 0 271.7 0 232.8 0C194 0 155 0 116.2 0C77.3 0 38.7 0 19.3 0L0 0Z" fill="#c62368"></path></svg>