<svg id="visual" viewBox="0 0 900 600" width="900" height="600" xmlns="http://www.w3.org/2000/svg" xmlns:xlink="http://www.w3.org/1999/xlink" version="1.1"><g stroke-width="1" stroke-linejoin="bevel"><path d="M494 270L498 238L411 222Z" fill="#112e42" stroke="#112e42"></path><path d="M411 222L376 286L494 270Z" fill="#297ea6" stroke="#297ea6"></path><path d="M376 286L426 372L494 270Z" fill="#0c2435" stroke="#0c2435"></path><path d="M498 238L481 124L411 222Z" fill="#19435d" stroke="#19435d"></path><path d="M480 398L584 291L494 270Z" fill="#112e42" stroke="#112e42"></path><path d="M494 270L584 291L498 238Z" fill="#081a28" stroke="#081a28"></path><path d="M498 238L565 118L481 124Z" fill="#297ea6" stroke="#297ea6"></path><path d="M584 291L592 210L498 238Z" fill="#205a7a" stroke="#205a7a"></path><path d="M399 105L312 192L411 222Z" fill="#19435d" stroke="#19435d"></path><path d="M411 222L312 192L376 286Z" fill="#19435d" stroke="#19435d"></path><path d="M376 286L301 393L426 372Z" fill="#081a28" stroke="#081a28"></path><path d="M426 372L480 398L494 270Z" fill="#277297" stroke="#277297"></path><path d="M481 124L399 105L411 222Z" fill="#15384f" stroke="#15384f"></path><path d="M592 210L565 118L498 238Z" fill="#277297" stroke="#277297"></path><path d="M481 124L479 0L399 105Z" fill="#15384f" stroke="#15384f"></path><path d="M312 192L277 306L376 286Z" fill="#081a28" stroke="#081a28"></path><path d="M426 372L470 468L480 398Z" fill="#19435d" stroke="#19435d"></path><path d="M277 306L301 393L376 286Z" fill="#19435d" stroke="#19435d"></path><path d="M584 291L662 226L592 210Z" fill="#297ea6" stroke="#297ea6"></path><path d="M592 210L701 95L565 118Z" fill="#246688" stroke="#246688"></path><path d="M672 338L662 226L584 291Z" fill="#0c2435" stroke="#0c2435"></path><path d="M387 479L470 468L426 372Z" fill="#1d4e6b" stroke="#1d4e6b"></path><path d="M609 429L672 338L584 291Z" fill="#112e42" stroke="#112e42"></path><path d="M609 429L584 291L480 398Z" fill="#1d4e6b" stroke="#1d4e6b"></path><path d="M301 393L387 479L426 372Z" fill="#205a7a" stroke="#205a7a"></path><path d="M470 468L609 429L480 398Z" fill="#19435d" stroke="#19435d"></path><path d="M312 192L210 289L277 306Z" fill="#246688" stroke="#246688"></path><path d="M277 306L165 368L301 393Z" fill="#00101c" stroke="#00101c"></path><path d="M180 202L210 289L312 192Z" fill="#297ea6" stroke="#297ea6"></path><path d="M619 0L479 0L565 118Z" fill="#297ea6" stroke="#297ea6"></path><path d="M565 118L479 0L481 124Z" fill="#0c2435" stroke="#0c2435"></path><path d="M399 105L286 60L312 192Z" fill="#00101c" stroke="#00101c"></path><path d="M365 0L286 60L399 105Z" fill="#205a7a" stroke="#205a7a"></path><path d="M479 0L365 0L399 105Z" fill="#205a7a" stroke="#205a7a"></path><path d="M164 125L180 202L312 192Z" fill="#112e42" stroke="#112e42"></path><path d="M365 0L301 0L286 60Z" fill="#297ea6" stroke="#297ea6"></path><path d="M286 60L164 125L312 192Z" fill="#081a28" stroke="#081a28"></path><path d="M763 173L701 95L662 226Z" fill="#19435d" stroke="#19435d"></path><path d="M662 226L701 95L592 210Z" fill="#112e42" stroke="#112e42"></path><path d="M701 95L619 0L565 118Z" fill="#081a28" stroke="#081a28"></path><path d="M165 368L282 498L301 393Z" fill="#00101c" stroke="#00101c"></path><path d="M301 393L282 498L387 479Z" fill="#297ea6" stroke="#297ea6"></path><path d="M568 600L632 499L470 468Z" fill="#205a7a" stroke="#205a7a"></path><path d="M165 368L277 306L210 289Z" fill="#0c2435" stroke="#0c2435"></path><path d="M609 429L722 432L672 338Z" fill="#0c2435" stroke="#0c2435"></path><path d="M470 468L632 499L609 429Z" fill="#00101c" stroke="#00101c"></path><path d="M484 600L470 468L393 600Z" fill="#00101c" stroke="#00101c"></path><path d="M98 276L165 368L210 289Z" fill="#19435d" stroke="#19435d"></path><path d="M191 0L164 125L286 60Z" fill="#0c2435" stroke="#0c2435"></path><path d="M180 202L98 276L210 289Z" fill="#277297" stroke="#277297"></path><path d="M825 305L662 226L672 338Z" fill="#19435d" stroke="#19435d"></path><path d="M825 305L763 173L662 226Z" fill="#19435d" stroke="#19435d"></path><path d="M632 499L722 432L609 429Z" fill="#246688" stroke="#246688"></path><path d="M393 600L470 468L387 479Z" fill="#277297" stroke="#277297"></path><path d="M82 178L98 276L180 202Z" fill="#297ea6" stroke="#297ea6"></path><path d="M334 600L393 600L387 479Z" fill="#205a7a" stroke="#205a7a"></path><path d="M793 0L708 0L701 95Z" fill="#297ea6" stroke="#297ea6"></path><path d="M701 95L708 0L619 0Z" fill="#0c2435" stroke="#0c2435"></path><path d="M301 0L191 0L286 60Z" fill="#1d4e6b" stroke="#1d4e6b"></path><path d="M164 125L82 178L180 202Z" fill="#081a28" stroke="#081a28"></path><path d="M165 368L223 538L282 498Z" fill="#112e42" stroke="#112e42"></path><path d="M282 498L334 600L387 479Z" fill="#1d4e6b" stroke="#1d4e6b"></path><path d="M104 424L223 538L165 368Z" fill="#15384f" stroke="#15384f"></path><path d="M722 432L801 370L672 338Z" fill="#19435d" stroke="#19435d"></path><path d="M484 600L568 600L470 468Z" fill="#277297" stroke="#277297"></path><path d="M632 499L724 511L722 432Z" fill="#19435d" stroke="#19435d"></path><path d="M722 432L806 527L801 370Z" fill="#297ea6" stroke="#297ea6"></path><path d="M223 538L334 600L282 498Z" fill="#112e42" stroke="#112e42"></path><path d="M78 102L82 178L164 125Z" fill="#0c2435" stroke="#0c2435"></path><path d="M801 370L825 305L672 338Z" fill="#081a28" stroke="#081a28"></path><path d="M763 173L839 83L701 95Z" fill="#0c2435" stroke="#0c2435"></path><path d="M697 600L724 511L632 499Z" fill="#15384f" stroke="#15384f"></path><path d="M82 517L104 424L0 501Z" fill="#1d4e6b" stroke="#1d4e6b"></path><path d="M98 276L104 424L165 368Z" fill="#246688" stroke="#246688"></path><path d="M101 0L78 102L164 125Z" fill="#00101c" stroke="#00101c"></path><path d="M900 185L839 83L763 173Z" fill="#1d4e6b" stroke="#1d4e6b"></path><path d="M839 83L793 0L701 95Z" fill="#00101c" stroke="#00101c"></path><path d="M568 600L697 600L632 499Z" fill="#15384f" stroke="#15384f"></path><path d="M724 511L806 527L722 432Z" fill="#19435d" stroke="#19435d"></path><path d="M191 0L101 0L164 125Z" fill="#15384f" stroke="#15384f"></path><path d="M803 600L806 527L724 511Z" fill="#297ea6" stroke="#297ea6"></path><path d="M801 370L900 299L825 305Z" fill="#081a28" stroke="#081a28"></path><path d="M900 438L900 299L801 370Z" fill="#15384f" stroke="#15384f"></path><path d="M825 305L900 185L763 173Z" fill="#246688" stroke="#246688"></path><path d="M82 517L166 600L223 538Z" fill="#0c2435" stroke="#0c2435"></path><path d="M223 538L166 600L334 600Z" fill="#081a28" stroke="#081a28"></path><path d="M900 299L900 185L825 305Z" fill="#15384f" stroke="#15384f"></path><path d="M839 83L900 0L793 0Z" fill="#0c2435" stroke="#0c2435"></path><path d="M0 335L104 424L98 276Z" fill="#15384f" stroke="#15384f"></path><path d="M104 424L82 517L223 538Z" fill="#1d4e6b" stroke="#1d4e6b"></path><path d="M0 163L98 276L82 178Z" fill="#0c2435" stroke="#0c2435"></path><path d="M0 89L0 163L78 102Z" fill="#246688" stroke="#246688"></path><path d="M78 102L0 163L82 178Z" fill="#0c2435" stroke="#0c2435"></path><path d="M0 163L0 335L98 276Z" fill="#15384f" stroke="#15384f"></path><path d="M900 185L900 104L839 83Z" fill="#15384f" stroke="#15384f"></path><path d="M0 335L0 398L104 424Z" fill="#112e42" stroke="#112e42"></path><path d="M0 0L0 89L78 102Z" fill="#297ea6" stroke="#297ea6"></path><path d="M806 527L900 438L801 370Z" fill="#1d4e6b" stroke="#1d4e6b"></path><path d="M697 600L803 600L724 511Z" fill="#081a28" stroke="#081a28"></path><path d="M806 527L900 491L900 438Z" fill="#0c2435" stroke="#0c2435"></path><path d="M900 600L900 491L806 527Z" fill="#246688" stroke="#246688"></path><path d="M900 104L900 0L839 83Z" fill="#19435d" stroke="#19435d"></path><path d="M101 0L0 0L78 102Z" fill="#246688" stroke="#246688"></path><path d="M0 398L0 501L104 424Z" fill="#277297" stroke="#277297"></path><path d="M82 517L61 600L166 600Z" fill="#205a7a" stroke="#205a7a"></path><path d="M0 501L61 600L82 517Z" fill="#277297" stroke="#277297"></path><path d="M803 600L900 600L806 527Z" fill="#081a28" stroke="#081a28"></path><path d="M0 501L0 600L61 600Z" fill="#00101c" stroke="#00101c"></path></g></svg>