<svg id="visual" viewBox="0 0 1440 2880" width="1440" height="2880" xmlns="http://www.w3.org/2000/svg" xmlns:xlink="http://www.w3.org/1999/xlink" version="1.1"><path d="M0 145L48 145C96 145 192 145 288 135.3C384 125.7 480 106.3 576 111.2C672 116 768 145 864 154.7C960 164.3 1056 154.7 1152 154.7C1248 154.7 1344 164.3 1392 169.2L1440 174L1440 0L1392 0C1344 0 1248 0 1152 0C1056 0 960 0 864 0C768 0 672 0 576 0C480 0 384 0 288 0C192 0 96 0 48 0L0 0Z" fill="#314f7f"></path><path d="M0 318L48 322.8C96 327.7 192 337.3 288 332.5C384 327.7 480 308.3 576 317.8C672 327.3 768 365.7 864 375.3C960 385 1056 366 1152 351.7C1248 337.3 1344 327.7 1392 322.8L1440 318L1440 172L1392 167.2C1344 162.3 1248 152.7 1152 152.7C1056 152.7 960 162.3 864 152.7C768 143 672 114 576 109.2C480 104.3 384 123.7 288 133.3C192 143 96 143 48 143L0 143Z" fill="#2c4977"></path><path d="M0 577L48 562.7C96 548.3 192 519.7 288 524.5C384 529.3 480 567.7 576 591.7C672 615.7 768 625.3 864 644.5C960 663.7 1056 692.3 1152 673C1248 653.7 1344 586.3 1392 552.7L1440 519L1440 316L1392 320.8C1344 325.7 1248 335.3 1152 349.7C1056 364 960 383 864 373.3C768 363.7 672 325.3 576 315.8C480 306.3 384 325.7 288 330.5C192 335.3 96 325.7 48 320.8L0 316Z" fill="#26426f"></path><path d="M0 721L48 697C96 673 192 625 288 629.8C384 634.7 480 692.3 576 730.7C672 769 768 788 864 797.5C960 807 1056 807 1152 787.8C1248 768.7 1344 730.3 1392 711.2L1440 692L1440 517L1392 550.7C1344 584.3 1248 651.7 1152 671C1056 690.3 960 661.7 864 642.5C768 623.3 672 613.7 576 589.7C480 565.7 384 527.3 288 522.5C192 517.7 96 546.3 48 560.7L0 575Z" fill="#213c67"></path><path d="M0 1268L48 1239.2C96 1210.3 192 1152.7 288 1143.2C384 1133.7 480 1172.3 576 1196.3C672 1220.3 768 1229.7 864 1282.3C960 1335 1056 1431 1152 1426.3C1248 1421.7 1344 1316.3 1392 1263.7L1440 1211L1440 690L1392 709.2C1344 728.3 1248 766.7 1152 785.8C1056 805 960 805 864 795.5C768 786 672 767 576 728.7C480 690.3 384 632.7 288 627.8C192 623 96 671 48 695L0 719Z" fill="#1b365f"></path><path d="M0 1412L48 1383.2C96 1354.3 192 1296.7 288 1282.3C384 1268 480 1297 576 1321C672 1345 768 1364 864 1412C960 1460 1056 1537 1152 1527.5C1248 1518 1344 1422 1392 1374L1440 1326L1440 1209L1392 1261.7C1344 1314.3 1248 1419.7 1152 1424.3C1056 1429 960 1333 864 1280.3C768 1227.7 672 1218.3 576 1194.3C480 1170.3 384 1131.7 288 1141.2C192 1150.7 96 1208.3 48 1237.2L0 1266Z" fill="#163058"></path><path d="M0 1556L48 1522.5C96 1489 192 1422 288 1407.7C384 1393.3 480 1431.7 576 1446C672 1460.3 768 1450.7 864 1489C960 1527.3 1056 1613.7 1152 1618.5C1248 1623.3 1344 1546.7 1392 1508.3L1440 1470L1440 1324L1392 1372C1344 1420 1248 1516 1152 1525.5C1056 1535 960 1458 864 1410C768 1362 672 1343 576 1319C480 1295 384 1266 288 1280.3C192 1294.7 96 1352.3 48 1381.2L0 1410Z" fill="#132c52"></path><path d="M0 2276L48 2256.8C96 2237.7 192 2199.3 288 2161C384 2122.7 480 2084.3 576 2079.5C672 2074.7 768 2103.3 864 2122.5C960 2141.7 1056 2151.3 1152 2122.5C1248 2093.7 1344 2026.3 1392 1992.7L1440 1959L1440 1468L1392 1506.3C1344 1544.7 1248 1621.3 1152 1616.5C1056 1611.7 960 1525.3 864 1487C768 1448.7 672 1458.3 576 1444C480 1429.7 384 1391.3 288 1405.7C192 1420 96 1487 48 1520.5L0 1554Z" fill="#122a4e"></path><path d="M0 2449L48 2429.8C96 2410.7 192 2372.3 288 2329.2C384 2286 480 2238 576 2242.8C672 2247.7 768 2305.3 864 2329.3C960 2353.3 1056 2343.7 1152 2295.7C1248 2247.7 1344 2161.3 1392 2118.2L1440 2075L1440 1957L1392 1990.7C1344 2024.3 1248 2091.7 1152 2120.5C1056 2149.3 960 2139.7 864 2120.5C768 2101.3 672 2072.7 576 2077.5C480 2082.3 384 2120.7 288 2159C192 2197.3 96 2235.7 48 2254.8L0 2274Z" fill="#12284a"></path><path d="M0 2679L48 2655C96 2631 192 2583 288 2568.7C384 2554.3 480 2573.7 576 2602.5C672 2631.3 768 2669.7 864 2669.7C960 2669.7 1056 2631.3 1152 2607.3C1248 2583.3 1344 2573.7 1392 2568.8L1440 2564L1440 2073L1392 2116.2C1344 2159.3 1248 2245.7 1152 2293.7C1056 2341.7 960 2351.3 864 2327.3C768 2303.3 672 2245.7 576 2240.8C480 2236 384 2284 288 2327.2C192 2370.3 96 2408.7 48 2427.8L0 2447Z" fill="#112646"></path><path d="M0 2795L48 2785.3C96 2775.7 192 2756.3 288 2751.5C384 2746.7 480 2756.3 576 2770.7C672 2785 768 2804 864 2799.2C960 2794.3 1056 2765.7 1152 2765.7C1248 2765.7 1344 2794.3 1392 2808.7L1440 2823L1440 2562L1392 2566.8C1344 2571.7 1248 2581.3 1152 2605.3C1056 2629.3 960 2667.7 864 2667.7C768 2667.7 672 2629.3 576 2600.5C480 2571.7 384 2552.3 288 2566.7C192 2581 96 2629 48 2653L0 2677Z" fill="#112442"></path><path d="M0 2881L48 2881C96 2881 192 2881 288 2881C384 2881 480 2881 576 2881C672 2881 768 2881 864 2881C960 2881 1056 2881 1152 2881C1248 2881 1344 2881 1392 2881L1440 2881L1440 2821L1392 2806.7C1344 2792.3 1248 2763.7 1152 2763.7C1056 2763.7 960 2792.3 864 2797.2C768 2802 672 2783 576 2768.7C480 2754.3 384 2744.7 288 2749.5C192 2754.3 96 2773.7 48 2783.3L0 2793Z" fill="#10223e"></path></svg>