<svg id="visual" viewBox="0 0 1440 2880" width="1440" height="2880" xmlns="http://www.w3.org/2000/svg" xmlns:xlink="http://www.w3.org/1999/xlink" version="1.1"><path d="M0 260L30 260C60 260 120 260 180 260C240 260 300 260 360 260C420 260 480 260 540 260C600 260 660 260 720 269.7C780 279.3 840 298.7 900 308.3C960 318 1020 318 1080 322.8C1140 327.7 1200 337.3 1260 337.3C1320 337.3 1380 327.7 1410 322.8L1440 318L1440 0L1410 0C1380 0 1320 0 1260 0C1200 0 1140 0 1080 0C1020 0 960 0 900 0C840 0 780 0 720 0C660 0 600 0 540 0C480 0 420 0 360 0C300 0 240 0 180 0C120 0 60 0 30 0L0 0Z" fill="#372558"></path><path d="M0 548L30 552.8C60 557.7 120 567.3 180 591.3C240 615.3 300 653.7 360 663.3C420 673 480 654 540 654C600 654 660 673 720 673C780 673 840 654 900 658.8C960 663.7 1020 692.3 1080 706.7C1140 721 1200 721 1260 711.3C1320 701.7 1380 682.3 1410 672.7L1440 663L1440 316L1410 320.8C1380 325.7 1320 335.3 1260 335.3C1200 335.3 1140 325.7 1080 320.8C1020 316 960 316 900 306.3C840 296.7 780 277.3 720 267.7C660 258 600 258 540 258C480 258 420 258 360 258C300 258 240 258 180 258C120 258 60 258 30 258L0 258Z" fill="#2a1c44"></path><path d="M0 1211L30 1206.2C60 1201.3 120 1191.7 180 1201.2C240 1210.7 300 1239.3 360 1277.7C420 1316 480 1364 540 1373.7C600 1383.3 660 1354.7 720 1369.2C780 1383.7 840 1441.3 900 1431.7C960 1422 1020 1345 1080 1325.7C1140 1306.3 1200 1344.7 1260 1359.2C1320 1373.7 1380 1364.3 1410 1359.7L1440 1355L1440 661L1410 670.7C1380 680.3 1320 699.7 1260 709.3C1200 719 1140 719 1080 704.7C1020 690.3 960 661.7 900 656.8C840 652 780 671 720 671C660 671 600 652 540 652C480 652 420 671 360 661.3C300 651.7 240 613.3 180 589.3C120 565.3 60 555.7 30 550.8L0 546Z" fill="#1d1331"></path><path d="M0 1527L30 1517.5C60 1508 120 1489 180 1489C240 1489 300 1508 360 1536.8C420 1565.7 480 1604.3 540 1609.2C600 1614 660 1585 720 1609C780 1633 840 1710 900 1710C960 1710 1020 1633 1080 1604.2C1140 1575.3 1200 1594.7 1260 1604.3C1320 1614 1380 1614 1410 1614L1440 1614L1440 1353L1410 1357.7C1380 1362.3 1320 1371.7 1260 1357.2C1200 1342.7 1140 1304.3 1080 1323.7C1020 1343 960 1420 900 1429.7C840 1439.3 780 1381.7 720 1367.2C660 1352.7 600 1381.3 540 1371.7C480 1362 420 1314 360 1275.7C300 1237.3 240 1208.7 180 1199.2C120 1189.7 60 1199.3 30 1204.2L0 1209Z" fill="#170d26"></path><path d="M0 1988L30 1988C60 1988 120 1988 180 1983.2C240 1978.3 300 1968.7 360 1992.7C420 2016.7 480 2074.3 540 2079.2C600 2084 660 2036 720 2040.8C780 2045.7 840 2103.3 900 2117.8C960 2132.3 1020 2103.7 1080 2084.5C1140 2065.3 1200 2055.7 1260 2070C1320 2084.3 1380 2122.7 1410 2141.8L1440 2161L1440 1612L1410 1612C1380 1612 1320 1612 1260 1602.3C1200 1592.7 1140 1573.3 1080 1602.2C1020 1631 960 1708 900 1708C840 1708 780 1631 720 1607C660 1583 600 1612 540 1607.2C480 1602.3 420 1563.7 360 1534.8C300 1506 240 1487 180 1487C120 1487 60 1506 30 1515.5L0 1525Z" fill="#160c23"></path><path d="M0 2881L30 2881C60 2881 120 2881 180 2881C240 2881 300 2881 360 2881C420 2881 480 2881 540 2881C600 2881 660 2881 720 2881C780 2881 840 2881 900 2881C960 2881 1020 2881 1080 2881C1140 2881 1200 2881 1260 2881C1320 2881 1380 2881 1410 2881L1440 2881L1440 2159L1410 2139.8C1380 2120.7 1320 2082.3 1260 2068C1200 2053.7 1140 2063.3 1080 2082.5C1020 2101.7 960 2130.3 900 2115.8C840 2101.3 780 2043.7 720 2038.8C660 2034 600 2082 540 2077.2C480 2072.3 420 2014.7 360 1990.7C300 1966.7 240 1976.3 180 1981.2C120 1986 60 1986 30 1986L0 1986Z" fill="#140b1f"></path></svg>